<?xml version="1.0" encoding="iso-8859-1"?>
<!-- Uploaded to: SVG Repo, www.svgrepo.com, Generator: SVG Repo Mixer Tools -->
<svg version="1.1" id="Layer_1" xmlns="http://www.w3.org/2000/svg" xmlns:xlink="http://www.w3.org/1999/xlink" 
	 viewBox="0 0 511.999 511.999" xml:space="preserve">
<path style="fill:#B3B3B3;" d="M173.687,482.195l90.048-90.048l-71.943-71.943l-98.796,60.135L29.8,482.196
	C69.533,521.928,133.953,521.928,173.687,482.195z"/>
<path style="fill:#D8D8D8;" d="M29.8,338.308c-39.733,39.733-39.733,104.153,0,143.887l0,0l0,0l161.992-161.991l-71.943-71.943
	L29.8,338.308z"/>
<polygon style="fill:#D14901;" points="444.885,98.727 429.076,67.11 175.983,320.205 207.599,336.013 "/>
<polygon style="fill:#F37A23;" points="413.268,67.11 175.983,304.396 182.857,329.138 437.812,74.183 "/>
<polygon style="fill:#B34D1D;" points="511.999,102.61 460.693,51.303 429.076,53.285 429.076,82.919 480.383,134.225 "/>
<polygon style="fill:#898989;" points="141.351,402.26 207.599,336.013 191.792,320.205 153.599,343.245 125.543,386.453 "/>
<rect x="396.874" y="5.187" transform="matrix(-0.7071 0.7071 -0.7071 -0.7071 744.9902 -225.655)" style="fill:#D14901;" width="44.712" height="72.557"/>
<rect x="139.579" y="298.587" transform="matrix(0.7071 0.7071 -0.7071 0.7071 288.4113 -5.4271)" style="fill:#B3B3B3;" width="22.355" height="93.685"/>
</svg>